<?xml version="1.0" standalone="no"?><!DOCTYPE svg PUBLIC "-//W3C//DTD SVG 1.1//EN" "http://www.w3.org/Graphics/SVG/1.1/DTD/svg11.dtd"><svg t="1693568544961" class="icon" viewBox="0 0 1024 1024" version="1.1" xmlns="http://www.w3.org/2000/svg" p-id="954" xmlns:xlink="http://www.w3.org/1999/xlink" width="200" height="200"><path d="M894.0544 193.1264a64.83456 64.83456 0 0 0-64.7168-14.1312L142.4896 407.9616c-25.1904 8.3968-42.1376 30.0544-44.1344 56.576-1.9968 26.4704 11.4176 50.4832 35.0208 62.5664l195.7888 100.4544v201.2672c0 14.1312 11.4688 25.6 25.6 25.6s25.6-11.4688 25.6-25.6V653.824l307.2512 157.6448c9.3184 4.7616 19.456 7.168 29.5424 7.168 9.0112 0 18.0736-1.8944 26.5728-5.7344a64.4608 64.4608 0 0 0 36.1984-42.9056l132.5568-513.28c6.0416-23.04-1.0752-47.36-18.432-63.5904z m-31.0784 50.7904l-132.5568 513.28c-1.4336 5.5296-5.376 8.0384-7.6288 9.0112s-6.7072 2.304-11.776-0.3072l-306.432-157.2352 348.3648-239.8208a25.53856 25.53856 0 0 0 6.5536-35.584 25.5744 25.5744 0 0 0-35.584-6.5536l-371.0464 255.488-196.096-100.608c-7.2704-3.7376-7.5776-10.4448-7.3728-13.1584 0.2048-2.7136 1.536-9.3184 9.2672-11.8784l686.7968-228.9152c1.5872-0.512 3.072-0.768 4.4544-0.768 4.5568 0 7.7824 2.4576 9.1648 3.7376 1.792 1.5872 5.7344 6.2464 3.8912 13.312z" fill="#252424" p-id="955"></path></svg>